<svg width="1064" height="850" viewBox="0 0 1064 850" fill="none" xmlns="http://www.w3.org/2000/svg">
<g opacity="0.15">
<mask id="mask0_1_499" style="mask-type:luminance" maskUnits="userSpaceOnUse" x="0" y="0" width="1064" height="850">
<path d="M1063.62 0.470215H0.399902V849.45H1063.62V0.470215Z" fill="white"/>
</mask>
<g mask="url(#mask0_1_499)">
<path d="M682.04 627.45L473.77 508.95L357.52 442.78L283.04 400.4L220.5 364.81C189.84 347.36 150.94 359.1 134.81 390.49C126.85 405.98 120.8 422.46 116.85 439.56C113.32 454.77 111.51 470.49 111.51 486.43V869.52C111.51 944.33 151.77 1013.99 216.52 1051.38L226.66 1057.23L342.91 1124.35L357.52 1132.8L473.77 1199.9L548.29 1242.94C563.23 1251.57 578.95 1258.17 595.16 1262.81C614.12 1268.26 633.71 1270.99 653.28 1270.99H653.88C685.8 1270.92 711.4 1244.55 711.4 1212.63V677.96C711.4 657.06 700.19 637.79 682.03 627.45M595.16 1135.77L473.77 1065.67L357.52 998.57L342.91 990.14L274.65 950.72C245.73 934.04 226.67 903.08 226.67 869.68V735.35L227.78 735.97V502.7L357.53 576.56L473.78 642.7L595.17 711.8V1135.78L595.16 1135.77Z" fill="white"/>
<path d="M1088.64 303.89L757.73 112.84C693.12 75.5302 612.89 75.5302 548.28 112.84L396.41 200.5L280.04 267.71L396.81 334.16L820.74 575.41L819.59 1070.22L819.28 1204.28L935.38 1137.25L935.71 1003.17L936.76 541.87C936.8 520.97 925.6 501.67 907.44 491.33L513.17 266.98L606.24 213.24C620.63 204.92 636.81 200.77 652.99 200.77C669.17 200.77 685.32 204.91 699.74 213.24L1030.65 404.31C1059.49 420.94 1077.41 451.98 1077.41 485.28V1055.24L1088.62 1048.75C1153.21 1011.47 1193.36 941.97 1193.36 867.36V485.27C1193.36 410.66 1153.21 341.18 1088.62 303.88" fill="white"/>
</g>
</g>
</svg>
