<svg width="1064" height="394" viewBox="0 0 1064 394" fill="none" xmlns="http://www.w3.org/2000/svg">
<g opacity="0.1">
<mask id="mask0_1_22" style="mask-type:luminance" maskUnits="userSpaceOnUse" x="0" y="0" width="1064" height="394">
<path d="M1063.74 0.179199H0.52002V393.274H1063.74V0.179199Z" fill="white"/>
</mask>
<g mask="url(#mask0_1_22)">
<path d="M682.16 -288.808L473.89 -407.385L357.64 -473.598L283.16 -516.006L220.62 -551.619C189.96 -569.08 151.06 -557.333 134.93 -525.922C126.97 -510.422 120.92 -493.931 116.97 -476.82C113.44 -461.6 111.63 -445.87 111.63 -429.92V-46.5811C111.63 28.2775 151.89 97.9827 216.64 135.397L226.78 141.251L343.03 208.414L357.64 216.87L473.89 284.013L548.41 327.081C563.35 335.717 579.07 342.321 595.28 346.964C614.24 352.418 633.83 355.15 653.4 355.15H654C685.92 355.08 711.52 328.692 711.52 296.752V-238.265C711.52 -259.179 700.31 -278.462 682.15 -288.808M595.29 219.842L473.9 149.696L357.65 82.5528L343.04 74.1173L274.78 34.6717C245.86 17.9809 226.8 -12.9992 226.8 -46.4209V-180.838L227.91 -180.218V-413.639L357.66 -339.731L473.91 -273.548L595.3 -204.403V219.852L595.29 219.842Z" fill="white"/>
<path d="M1088.76 -612.578L757.85 -803.752C693.24 -841.087 613.01 -841.087 548.4 -803.752L396.53 -716.036L280.16 -648.782L396.93 -582.289L820.86 -340.882L819.71 154.249L819.4 288.396L935.5 221.323L935.83 87.1557L936.88 -374.444C936.92 -395.357 925.72 -414.67 907.56 -425.017L513.29 -649.512L606.36 -703.287C620.75 -711.613 636.93 -715.765 653.11 -715.765C669.29 -715.765 685.44 -711.623 699.86 -703.287L1030.77 -512.093C1059.61 -495.452 1077.53 -464.392 1077.53 -431.071V139.26L1088.74 132.765C1153.33 95.4611 1193.48 25.916 1193.48 -48.7425V-431.081C1193.48 -505.739 1153.33 -575.264 1088.74 -612.588" fill="white"/>
</g>
</g>
</svg>
